<svg width="23" height="20" viewBox="0 0 23 20" fill="none" xmlns="http://www.w3.org/2000/svg">
<path d="M20.1409 7.875H2.14089C1.69222 7.87447 0.458148 7.20307 0.14089 6.875C-0.176368 6.54693 0.141403 6.33897 0.14089 5.875V2.875C0.141403 2.41103 -0.176368 2.20307 0.14089 1.875C0.458148 1.54693 1.69222 0.87553 2.14089 0.875H20.1409C20.5896 0.87553 21.8236 1.54693 22.1409 1.875C22.4581 2.20307 22.1404 2.41103 22.1409 2.875V5.875C22.1404 6.33897 22.4581 6.54693 22.1409 6.875C21.8236 7.20307 20.5896 7.87447 20.1409 7.875ZM2.14089 2.875V5.875H20.1409V2.875H2.14089Z" fill="black"/>
<path d="M17.9999 19.125H4.99992C4.31299 19.1242 3.48564 18.6171 2.99992 18.125C2.51419 17.6329 2.00067 16.8209 1.99992 16.125V6.12498C1.95652 6.23115 1.99989 6.01006 1.99992 6.12498C2.04331 6.0188 1.91971 5.20623 1.99992 5.12498C2.08012 5.04372 2.89512 5.16894 2.99992 5.12498C2.88649 5.12495 3.10471 5.08101 2.99992 5.12498H19.9999C19.8951 5.08101 20.1133 5.12495 19.9999 5.12498C20.1047 5.16894 20.9197 5.04372 20.9999 5.12498C21.0801 5.20623 20.9565 6.0188 20.9999 6.12498C20.9999 6.01006 21.0433 6.23115 20.9999 6.12498V16.125C20.9992 16.8209 20.4856 17.6329 19.9999 18.125C19.5142 18.6171 18.6868 19.1242 17.9999 19.125ZM3.99992 7.12498V16.125C4.00014 16.357 3.838 16.9609 3.99992 17.125C4.16183 17.289 4.77094 17.1247 4.99992 17.125H17.9999C18.2289 17.1247 18.838 17.289 18.9999 17.125C19.1618 16.9609 18.9997 16.357 18.9999 16.125V7.12498H3.99992Z" fill="black"/>
<path d="M13.9998 11H7.99979C7.78761 11 7.14981 11.1875 6.99979 11C6.84976 10.8125 6.99979 10.2652 6.99979 10C6.99979 9.73479 6.84976 9.18754 6.99979 9.00001C7.14981 8.81247 7.78761 9.00001 7.99979 9.00001H13.9998C14.212 9.00001 14.8498 8.81247 14.9998 9.00001C15.1498 9.18754 14.9998 9.73479 14.9998 10C14.9998 10.2652 15.1498 10.8125 14.9998 11C14.8498 11.1875 14.212 11 13.9998 11Z" fill="black"/>
</svg>
